<?xml version="1.0" encoding="UTF-8"?>
<!DOCTYPE svg PUBLIC "-//W3C//DTD SVG 1.1//EN" "http://www.w3.org/Graphics/SVG/1.1/DTD/svg11.dtd">
<!-- Creator: CorelDRAW -->
<svg xmlns="http://www.w3.org/2000/svg" xml:space="preserve" width="6.062in" height="2.012in" style="shape-rendering:geometricPrecision; text-rendering:geometricPrecision; image-rendering:optimizeQuality; fill-rule:evenodd; clip-rule:evenodd"
viewBox="0 0 6.062 2.012"
 xmlns:svg="http://www.w3.org/2000/svg"
 version="1.0">
 <defs>
  <style type="text/css">
   <![CDATA[
    .fil1 {fill:none}
    .fil0 {fill:black}
   ]]>
  </style>
    <clipPath id="id0">
     <path d="M-0.0899921 -0.00879134l2.1115 0 0 2.01174 -2.1115 0 0 -2.01174z"/>
    </clipPath>
    <clipPath id="id1">
     <path d="M1.75284 -0.00879134l2.1115 0 0 2.01174 -2.1115 0 0 -2.01174z"/>
    </clipPath>
    <clipPath id="id2">
     <path d="M3.86076 -0.00879134l2.1115 0 0 2.01174 -2.1115 0 0 -2.01174z"/>
    </clipPath>
 </defs>
 <g id="Dummy_x0025_Layer_x0025_Dummy_x0025_Layer">
  <metadata id="CorelCorpID_0Corel-Layer"/>
  <g id="_147817544">
   <g>
   </g>
   <g style="clip-path:url(#id0)">
    <g id="_147785160">
     <g>
      <g id="layer1">
       <path id="flowRoot2160" class="fil0" d="M1.39128 0.0752283c0.0314567,0.00858268 0.0897244,0.0353898 0.174803,0.0804291 0.0850787,0.0450433 0.13548,0.0761457 0.151213,0.0933031 0.0157244,0.0171575 0.022874,0.0371772 0.0214449,0.0600512l0 0.0128701c-0.00714961,0.0028622 -0.0235945,0.0175197 -0.0493307,0.0439685 -0.0257362,0.0264567 -0.0479016,0.038252 -0.0664882,0.0353898l-0.0428976 0.0922283 0.0107244 0.040752 -0.034315 0.132976c0.00285827,0.0257402 0.0042874,0.0386102 0.0042874,0.0386063 0,3.93701e-006 -0.00643307,0.0314606 -0.0193031,0.094374l0.0150157 0.040752 -0.0107244 0.0450394c0.0100079,0.035748 0.0178701,0.0950906 0.0235945,0.17802 0.00285433,0.0643465 0.00642913,0.12726 0.0107205,0.188744l-0.0193031 0.0493307c0.0100079,0.022878 0.0150118,0.114394 0.0150157,0.274539 -3.93701e-006,0 -0.000716535,0.0443268 -0.00214567,0.132976l-0.0772126 0.171587 -0.0772126 0.00857874 -0.0386063 0.0278819c-0.0486181,-0.034315 -0.0765,-0.0815039 -0.0836496,-0.141555 -0.0457559,-0.0328898 -0.111531,-0.0493346 -0.197323,-0.0493307 -0.0872244,-3.93701e-006 -0.20376,0.0100079 -0.349606,0.0300236 -0.058626,0.00714961 -0.140843,0.0285984 -0.246654,0.0643465l-0.137268 0.047185c-0.0857953,-0.0457559 -0.137268,-0.0872205 -0.154429,-0.124398 -0.0128661,-0.0614843 -0.0257362,-0.122969 -0.0386063,-0.184457 0.0614843,-0.197323 0.0922283,-0.492591 0.0922283,-0.885807 0,-0.0285984 -0.00142913,-0.0711378 -0.00429134,-0.127618 -0.00285827,-0.0564803 -0.0042874,-0.0990157 -0.0042874,-0.127618 0,-0.0243031 -0.0157283,-0.0550472 -0.047185,-0.0922244 -0.0314606,-0.0371772 -0.0464724,-0.0679173 -0.0450433,-0.0922283l0 -0.00643307c0.0100079,-0.00142913 0.0200197,-0.00214567 0.0300276,-0.00214567 0.0328858,0 0.0922283,0.0164449 0.17802,0.0493307l0.911547 -0.195177 0.0557677 0.0107244 0.0514724 -0.0150157zm-0.96302 0.328157c-0.0114409,0.022878 -0.0171614,0.0564803 -0.0171614,0.100807l0 0.231638c0,3.93701e-006 0.00142913,0.0772165 0.00429134,0.231642l0.0857913 0.0107244c0.0343189,-0.0142992 0.0872244,-0.0300276 0.158717,-0.047185 0.190173,-0.047185 0.338165,-0.100807 0.443976,-0.160862l0.160862 0.0386063 0.0128701 -0.135122c0.00142913,-0.0100079 0.00107087,-0.0257362 -0.00107087,-0.047189 -0.00214961,-0.0214449 -0.00322047,-0.0364606 -0.00322047,-0.0450394 0,-0.152996 -0.00285827,-0.255949 -0.00857874,-0.308854 -0.0300276,-0.00571654 -0.0607717,-0.00857874 -0.0922244,-0.00857874 -0.047189,0 -0.10224,0.00714961 -0.165154,0.0214488 -0.0543346,0.0128701 -0.108669,0.0250236 -0.163004,0.0364606 -0.0700669,0.0114409 -0.139417,0.022878 -0.208047,0.0343189 -0.0843661,0.0142992 -0.153713,0.0300276 -0.208047,0.047185l0 0zm0.291693 0.649878c-0.0672047,0.0142992 -0.115106,0.0321732 -0.143701,0.053622l-0.147992 -0.0815039c-0.0171614,0.0328898 -0.0257402,0.0986614 -0.0257402,0.197323l-0.00214567 0.14585c0,0.0285945 -0.000712598,0.0500433 -0.00214173,0.0643425 -3.93701e-006,0 -0.0185906,0.0915118 -0.0557677,0.274535 0.451843,-0.121539 0.758551,-0.176587 0.920126,-0.16515l0.00858268 -0.544783 -0.0514764 -0.0193031c-0.058626,0.0114409 -0.116535,0.0235945 -0.173732,0.0364606 -0.0672047,0.0128701 -0.123685,0.0193031 -0.169441,0.0193031 -0.0457559,0 -0.0979449,0.00643701 -0.156571,0.0193031l0 0zm0.386067 2.42365c-0.0672047,0 -0.112961,0.0107244 -0.137268,0.0321732 0,0.0428976 0.0042874,0.108311 0.0128701,0.196252 0.00857874,0.087937 0.0128661,0.154067 0.0128661,0.198394 0,0.0972323 -0.0307402,0.159433 -0.0922244,0.186598 -0.0443268,-0.022878 -0.0772165,-0.0743543 -0.0986614,-0.154425 -0.0100118,-0.0571969 -0.0200197,-0.115106 -0.0300276,-0.173732 0.0243071,-0.0486142 0.0357441,-0.0807874 0.034315,-0.0965157l-0.0107244 -0.122256c-0.10152,0.0185906 -0.176591,0.0450433 -0.225205,0.0793583 -0.0243071,-0.011437 -0.0500472,-0.0378898 -0.0772126,-0.0793583 -0.0185906,-0.0328858 -0.0378937,-0.0650591 -0.0579094,-0.0965157l0.0150118 -0.0321732c0.0257362,0.00143307 0.053622,0.0114409 0.0836496,0.0300276 0.0300276,-0.00285827 0.0732795,-0.0150118 0.12976,-0.0364606 0.0564803,-0.0214488 0.0990197,-0.034315 0.127618,-0.0386063 0.0042874,-0.118681 0.00571654,-0.225205 0.0042874,-0.319579l0 -0.111531c-0.253087,0.388929 -0.51976,0.630579 -0.800016,0.724949l-0.122256 -0.0107244c0.330303,-0.233067 0.618421,-0.520472 0.864362,-0.862217 -0.0486142,3.93701e-006 -0.130118,0.0160866 -0.244508,0.0482598 -0.11439,0.0321732 -0.187315,0.0604134 -0.218772,0.0847205 -0.0157283,0.0114409 -0.0271693,0.0271693 -0.0343189,0.047185l-0.00643307 0c-0.0414685,0.00143307 -0.0793583,-0.0221614 -0.113677,-0.0707795 -0.0128661,-0.0200157 -0.034315,-0.0621969 -0.0643425,-0.126543 0.104382,0 0.232354,-0.0200157 0.383921,-0.0600551 0.12726,-0.0314567 0.253803,-0.0636299 0.379634,-0.0965157l-0.00857874 -0.231642c-0.0271693,-0.0271654 -0.0486181,-0.047185 -0.0643465,-0.0600551 -0.0200197,-0.0100079 -0.0400354,-0.0207323 -0.0600551,-0.0321732 -0.0243071,-0.0157244 -0.035748,-0.0321693 -0.034315,-0.0493307l0 -0.00857874c0.0886496,-0.0328858 0.13798,-0.0493268 0.147992,-0.0493307 0.0328858,3.93701e-006 0.0757835,0.0157323 0.128689,0.047185 0.0400354,0.0257402 0.0793583,0.0507638 0.117965,0.0750709 0.0042874,0.0157283 0.00643307,0.029315 0.00643307,0.040752 0,0.0400354 -0.0243071,0.0622008 -0.0729213,0.0664882 -0.0114409,0.0343189 -0.0171614,0.0736417 -0.0171575,0.117965 -3.93701e-006,0.0171614 0.000712598,0.0350354 0.00214173,0.053622 0.0371772,0 0.0940157,-0.0103661 0.170516,-0.0311024 0.0764961,-0.0207283 0.120465,-0.0310984 0.131906,-0.0310984 0.131547,0 0.240217,0.0371772 0.326012,0.111531 0.00285827,0.0100118 0.0042874,0.0193031 0.00429134,0.0278819 -3.93701e-006,0.0486181 -0.0479055,0.0729252 -0.143705,0.0729252 -0.0314606,0 -0.0793583,-0.00714961 -0.143705,-0.0214488 -0.0643425,-0.0142992 -0.113673,-0.0214488 -0.147992,-0.0214488 0,0 -0.0557638,0.00929528 -0.167295,0.0278819 0.0815039,0.134409 0.165866,0.242366 0.253091,0.32387 0.0686299,0.0643425 0.179449,0.144059 0.332445,0.239146 0.152996,0.0950866 0.259524,0.182665 0.319579,0.26274 -0.00143307,0.0142992 -0.00714961,0.0257362 -0.0171575,0.0343189 -0.0128701,0.0128661 -0.0550551,0.0257362 -0.126543,0.0386063 -0.0629173,0.0100079 -0.108673,0.0150118 -0.137272,0.0150118 -0.0314567,0 -0.0600551,-0.0035748 -0.0857913,-0.0107244 -0.0643465,-0.0200157 -0.165154,-0.134409 -0.302421,-0.343169 -0.034315,-0.0529055 -0.0915118,-0.135122 -0.171583,-0.246654 -0.0171614,-0.0257402 -0.0343189,-0.0521929 -0.0514764,-0.0793583 -0.022878,-0.035748 -0.0450433,-0.053622 -0.0664882,-0.053622 0.00285827,0.117252 0.0042874,0.188031 0.0042874,0.212339 0.0042874,0.0815039 0.011437,0.15228 0.0214488,0.212335 0.00857874,-0.00142913 0.0328858,-0.00643307 0.0729252,-0.0150118 0.0300236,-0.00572047 0.0550472,-0.00857874 0.0750669,-0.00857874 0.0314567,0 0.0668465,0.0135827 0.106169,0.040752 0.0393189,0.0271654 0.0589803,0.0557638 0.0589803,0.0857913 0,0.0271693 -0.0243071,0.0436102 -0.0729213,0.0493307 0.00142913,-0.00142913 -0.0328898,-0.00214567 -0.102953,-0.00214567l0 0zm-0.853638 0.911547c0.0114409,0.00572047 0.0257402,0.00858268 0.0428976,0.00857874 0.0257362,0.00143307 0.0400354,0.00214961 0.0428976,0.00214567 0.070063,0.0114409 0.115102,0.0207362 0.135122,0.0278819 0.0500433,0.0185906 0.0800709,0.0500472 0.0900827,0.094374l-0.0278819 0.117965c-0.00429134,0.0257402 -0.0214488,0.0657756 -0.0514764,0.12011l0.0300276 0.0171575 0.0386063 -0.0214488c0.0328858,-0.0042874 0.0607677,-0.00643307 0.0836496,-0.00643307 0.0943701,0 0.141555,0.0343189 0.141555,0.102953 -0.00714961,0.00142913 -0.135122,0.0278819 -0.383921,0.0793583 -0.152996,0.0328858 -0.274535,0.0772126 -0.364618,0.132976 -0.0285984,0 -0.0600551,-0.011437 -0.094374,-0.034315 -0.0271654,-0.0214488 -0.0536181,-0.0428976 -0.0793583,-0.0643465 0.0600551,-0.00857874 0.137268,-0.0285945 0.231642,-0.0600551 0.111531,-0.0371732 0.188028,-0.0600551 0.229496,-0.0686339 -0.0157283,-0.0900827 -0.0235945,-0.135122 -0.0235945,-0.135122 0,-0.0200197 0.00142913,-0.0507598 0.00429134,-0.0922283 0.00285827,-0.0414646 0.0042874,-0.0729213 0.0042874,-0.094374 0,-0.022874 -0.0107244,-0.0439646 -0.0321693,-0.0632717 -0.0214488,-0.0192992 -0.0321732,-0.0339567 -0.0321732,-0.0439685 0,-0.00571654 0.00500394,-0.0121496 0.0150118,-0.0193031l0 0zm1.26115 0.0321732c0.0457559,0 0.0807874,0.00858268 0.105098,0.0257362l0.0193031 0.0750709c-0.0328898,0.0185906 -0.0822205,0.0328898 -0.147992,0.0428976 -0.0714961,0.011437 -0.121543,0.0243071 -0.150138,0.0386063l0.0193031 0.0386063 -0.0386063 0.040752c-3.93701e-006,0.0157283 -0.00715354,0.0400354 -0.0214488,0.0729213 -0.0143031,0.0328898 -0.0214488,0.0543386 -0.0214488,0.0643465 0,0.0157283 0.00857874,0.0300276 0.0257362,0.0428937 0.0171575,-0.0328858 0.0550512,-0.0493268 0.113677,-0.0493307 0.0929409,3.93701e-006 0.165862,0.0214528 0.218772,0.0643465l0 0.0664882c-0.00572047,-0.00142913 -0.0107283,-0.00214173 -0.0150157,-0.00214567 -0.0128701,3.93701e-006 -0.0232362,0.00679528 -0.0310984,0.020378 -0.00786614,0.0135827 -0.015374,0.0260945 -0.0225197,0.0375354l-0.0257402 0.158717c0.0643425,0.00714961 0.127972,0.0135827 0.19089,0.0193031 0.0729213,0.011437 0.131547,0.034315 0.175874,0.0686339 0.011437,0.034315 0.0235906,0.0622008 0.0364646,0.0836457 -0.00429134,0.0128701 -0.0143031,0.0207362 -0.0300276,0.0235945l-0.0257402 0.0386063 -0.0300276 0.00214567c-0.0428976,0.00142913 -0.0958031,-0.00929528 -0.158717,-0.0321732 -0.094374,-0.0357441 -0.145846,-0.0550512 -0.154425,-0.0579094 -0.0285984,-0.00714961 -0.0786457,-0.0107244 -0.150138,-0.0107244 -0.108673,0 -0.226638,0.0171575 -0.353894,0.0514764 -0.150138,0.0386063 -0.253807,0.0886535 -0.311,0.150138l-0.0493307 0c-0.00714961,-0.0343189 -0.0307441,-0.0679213 -0.0707795,-0.100807l0.0300276 -0.0321732 0.0321732 0.0321732c0.00142913,-0.00142913 0.10724,-0.040752 0.317433,-0.117965l-0.00429134 -0.040752c0.00285827,-0.0128701 0.0271693,-0.047185 0.0729252,-0.102953 0.0386063,-0.047185 0.0579094,-0.0972283 0.0579094,-0.150138 -0.0743543,3.93701e-006 -0.134409,0.0228819 -0.180165,0.0686339l-0.047185 -0.100803 0.0321732 -0.040752 0.0772126 0.034315 0.137268 -0.034315c0.0371772,-0.0929409 0.0607677,-0.182311 0.0707795,-0.268102l-0.0278819 -0.0214488c-0.0285984,0.0028622 -0.0428976,0.00429134 -0.0428976,0.0042874 -0.0643465,3.93701e-006 -0.11439,-0.0321693 -0.150138,-0.0965157l0.0922283 0.0150157c0.0357441,-0.00714961 0.0900827,-0.0185866 0.163008,-0.0343189 0.0200157,-0.00571654 0.058622,-0.022874 0.115819,-0.0514764 0.0486142,-0.0257362 0.087937,-0.0378898 0.117965,-0.0364606l0.0386063 0zm-0.358185 0.817177c0.0543346,-0.00714961 0.133693,-0.0243071 0.238075,-0.0514764 -0.00857874,-0.0872205 -0.0128701,-0.130835 -0.0128661,-0.130835 -3.93701e-006,-0.011437 0.00178346,-0.0282402 0.00535827,-0.0504016 0.0035748,-0.0221654 0.0053622,-0.0389646 0.0053622,-0.0504055 0,-0.0243071 -0.00429134,-0.0443228 -0.0128661,-0.0600551 -0.0643465,3.93701e-006 -0.107244,0.0207362 -0.128689,0.0622008 -0.0171614,0.047185 -0.0328898,0.0936575 -0.047185,0.139413 -0.0100118,0.022878 -0.020378,0.0468307 -0.0311024,0.0718504 -0.0107244,0.0250236 -0.0160866,0.0482598 -0.0160866,0.0697087l0 0zm-0.641299 -0.154429l0.0386063 0.0428976 -0.0257362 0.0321732c-0.0886535,0.0214488 -0.167299,0.0543346 -0.235933,0.0986614 -0.0157283,-0.00572047 -0.0464685,-0.0114409 -0.0922244,-0.0171614 -0.0414685,-0.0042874 -0.0722087,-0.0121535 -0.0922283,-0.0235906 0.0371772,-0.00714961 0.0986614,-0.0328858 0.184453,-0.0772126 0.0772126,-0.0400354 0.137268,-0.0600551 0.180165,-0.0600551 0.0128701,0 0.0271693,0.00142913 0.0428976,0.0042874l0 0zm-0.0600551 0.278827c0.0314567,-0.00572047 0.0643425,0.00429134 0.0986614,0.0300276l0.0107244 0.0686339 -0.315287 0.113677 -0.171587 -0.0750709c0.0185866,-0.0128661 0.0650591,-0.0264528 0.139413,-0.040752 0.0614843,-0.0128661 0.105811,-0.0378898 0.13298,-0.0750669l0.105094 -0.0214488zm1.01235 0.17802c0.0357441,0 0.0836457,0.0164449 0.143701,0.0493307 0.0457559,0.0271693 0.0907953,0.0543346 0.135126,0.0815039l0.0193031 0.0450394 -0.00429134 0.0450433c-0.0443268,0.0214488 -0.0929449,0.0664882 -0.145846,0.135122 -0.0772165,0.0958031 -0.120827,0.148709 -0.130835,0.158717l-0.356039 0.0257402c-0.0114409,0.0400354 -0.0171614,0.0736378 -0.0171575,0.100807 -3.93701e-006,0.0157283 0.00214173,0.0314567 0.00643307,0.047185l-0.0150118 0c-0.0500472,0.0042874 -0.0879409,-0.0378937 -0.113677,-0.126547 -0.0142992,-0.0643425 -0.0285984,-0.129402 -0.0428976,-0.195177 -0.0128701,-0.0443268 -0.0285984,-0.107957 -0.047185,-0.19089l-0.0557638 -0.0450394 -0.00429134 -0.0364606c0.00572047,-0.00142913 0.011437,-0.00214567 0.0171614,-0.00214567 0.0142953,0 0.0321693,0.0042874 0.0536181,0.0128701 0.0214488,0.00857874 0.0378898,0.0128661 0.0493307,0.0128661 -0.0100079,0 0.0278819,-0.0100079 0.113677,-0.0300276 0.245937,-0.058622 0.377484,-0.087937 0.394646,-0.087937l0 0zm-0.677764 0.311c-0.0400354,0.0128701 -0.0911535,0.058626 -0.153354,0.137268 -0.0622008,0.0786417 -0.119752,0.125114 -0.172657,0.139413 -0.0214488,-0.00572047 -0.0321732,-0.00857874 -0.0321732,-0.00857874 -0.0786417,0 -0.137268,0.0135827 -0.175874,0.040752l0.0171575 0.126543 -0.0107244 0.0386063 -0.0321693 0c-0.0443268,-0.0428976 -0.0822205,-0.13298 -0.113677,-0.270248 -0.0271693,-0.12726 -0.0693504,-0.208047 -0.126543,-0.242362l0.0900827 0.00857874c0.0486142,-0.0100079 0.119394,-0.0257402 0.212335,-0.047185 0.0100118,-0.0028622 0.0707795,-0.0271693 0.182311,-0.0729252 0.0400354,-0.0171575 0.0707795,-0.0257362 0.0922283,-0.0257362 0.00714567,0 0.0364606,0.00929134 0.087937,0.0278819 0.0800709,0.0271654 0.125114,0.0764961 0.135122,0.147992l0 0zm0.248799 -0.109386c0.00714961,0.0657756 0.0128701,0.111531 0.0171575,0.137268 0.0128701,0.0514764 0.0307441,0.0922283 0.053622,0.122256 0.111528,-0.0271693 0.169441,-0.0421811 0.173728,-0.0450433 0.0414685,-0.0214488 0.0743543,-0.0707795 0.0986654,-0.147992 0.00571654,-0.0257362 0.0200157,-0.0607677 0.0428937,-0.105094 -0.0157283,-0.0142992 -0.035748,-0.0214488 -0.0600551,-0.0214488 -0.0300276,0 -0.0500472,-0.00214567 -0.0600551,-0.00643307 -0.100091,0.0200157 -0.188744,0.0421811 -0.265957,0.0664882l0 0zm-0.845059 0.147992c0.00714961,0.0772126 0.0271693,0.144417 0.0600551,0.201614l0.0965197 -0.0171614c0.0243071,-0.0328858 0.047185,-0.0757835 0.0686339,-0.128689 0.0257362,-0.0643425 0.0443228,-0.106524 0.0557638,-0.126543 -0.0142992,-0.00142913 -0.029315,-0.00214567 -0.0450394,-0.00214567 -0.082937,0 -0.161579,0.024311 -0.235933,0.0729252l0 0z"/>
      </g>
     </g>
    </g>
   </g>
   <polygon class="fil1" points="-0.0899921,-0.00879134 2.02151,-0.00879134 2.02151,2.00295 -0.0899921,2.00295 "/>
   <g>
   </g>
   <g style="clip-path:url(#id1)">
    <g>
     <g id="_146946520">
      <g id="layer1_0">
       <path id="flowRoot2160_1" class="fil0" d="M3.30726 -2.05265c0.0314567,0.00858268 0.0897244,0.0353898 0.174803,0.0804291 0.0850787,0.0450433 0.13548,0.0761457 0.151213,0.0933031 0.0157244,0.0171575 0.022874,0.0371772 0.0214449,0.0600512l0 0.0128701c-0.00714961,0.0028622 -0.0235945,0.0175197 -0.0493307,0.0439685 -0.0257362,0.0264567 -0.0479016,0.038252 -0.0664882,0.0353898l-0.0428976 0.0922283 0.0107244 0.040752 -0.034315 0.132976c0.00285827,0.0257402 0.0042874,0.0386102 0.0042874,0.0386063 0,3.93701e-006 -0.00643307,0.0314606 -0.0193031,0.094374l0.0150157 0.040752 -0.0107244 0.0450394c0.0100079,0.035748 0.0178701,0.0950906 0.0235945,0.17802 0.00285433,0.0643465 0.00642913,0.12726 0.0107205,0.188744l-0.0193031 0.0493307c0.0100079,0.022878 0.0150118,0.114394 0.0150157,0.274539 -3.93701e-006,0 -0.000716535,0.0443268 -0.00214567,0.132976l-0.0772126 0.171587 -0.0772126 0.00857874 -0.0386063 0.0278819c-0.0486181,-0.034315 -0.0765,-0.0815039 -0.0836496,-0.141555 -0.0457559,-0.0328898 -0.111531,-0.0493346 -0.197323,-0.0493307 -0.0872244,-3.93701e-006 -0.20376,0.0100079 -0.349606,0.0300236 -0.058626,0.00714961 -0.140843,0.0285984 -0.246654,0.0643465l-0.137268 0.047185c-0.0857953,-0.0457559 -0.137268,-0.0872205 -0.154429,-0.124398 -0.0128661,-0.0614843 -0.0257362,-0.122969 -0.0386063,-0.184457 0.0614843,-0.197323 0.0922283,-0.492591 0.0922283,-0.885807 0,-0.0285984 -0.00142913,-0.0711378 -0.00429134,-0.127618 -0.00285827,-0.0564803 -0.0042874,-0.0990157 -0.0042874,-0.127618 0,-0.0243031 -0.0157283,-0.0550472 -0.047185,-0.0922244 -0.0314606,-0.0371772 -0.0464724,-0.0679173 -0.0450433,-0.0922283l0 -0.00643307c0.0100079,-0.00142913 0.0200197,-0.00214567 0.0300276,-0.00214567 0.0328858,0 0.0922283,0.0164449 0.17802,0.0493307l0.911547 -0.195177 0.0557677 0.0107244 0.0514724 -0.0150157zm-0.96302 0.328157c-0.0114409,0.022878 -0.0171614,0.0564803 -0.0171614,0.100807l0 0.231638c0,3.93701e-006 0.00142913,0.0772165 0.00429134,0.231642l0.0857913 0.0107244c0.0343189,-0.0142992 0.0872244,-0.0300276 0.158717,-0.047185 0.190173,-0.047185 0.338165,-0.100807 0.443976,-0.160862l0.160862 0.0386063 0.0128701 -0.135122c0.00142913,-0.0100079 0.00107087,-0.0257362 -0.00107087,-0.047189 -0.00214961,-0.0214449 -0.00322047,-0.0364606 -0.00322047,-0.0450394 0,-0.152996 -0.00285827,-0.255949 -0.00857874,-0.308854 -0.0300276,-0.00571654 -0.0607717,-0.00857874 -0.0922244,-0.00857874 -0.047189,0 -0.10224,0.00714961 -0.165154,0.0214488 -0.0543346,0.0128701 -0.108669,0.0250236 -0.163004,0.0364606 -0.0700669,0.0114409 -0.139417,0.022878 -0.208047,0.0343189 -0.0843661,0.0142992 -0.153713,0.0300276 -0.208047,0.047185l0 0zm0.291693 0.649878c-0.0672047,0.0142992 -0.115106,0.0321732 -0.143701,0.053622l-0.147992 -0.0815039c-0.0171614,0.0328898 -0.0257402,0.0986614 -0.0257402,0.197323l-0.00214567 0.14585c0,0.0285945 -0.000712598,0.0500433 -0.00214173,0.0643425 -3.93701e-006,0 -0.0185906,0.0915118 -0.0557677,0.274535 0.451843,-0.121539 0.758551,-0.176587 0.920126,-0.16515l0.00858268 -0.544783 -0.0514764 -0.0193031c-0.058626,0.0114409 -0.116535,0.0235945 -0.173732,0.0364606 -0.0672047,0.0128701 -0.123685,0.0193031 -0.169441,0.0193031 -0.0457559,0 -0.0979449,0.00643701 -0.156571,0.0193031l0 0zm0.386067 2.42365c-0.0672047,0 -0.112961,0.0107244 -0.137268,0.0321732 0,0.0428976 0.0042874,0.108311 0.0128701,0.196252 0.00857874,0.087937 0.0128661,0.154067 0.0128661,0.198394 0,0.0972323 -0.0307402,0.159433 -0.0922244,0.186598 -0.0443268,-0.022878 -0.0772165,-0.0743543 -0.0986614,-0.154425 -0.0100118,-0.0571969 -0.0200197,-0.115106 -0.0300276,-0.173732 0.0243071,-0.0486142 0.0357441,-0.0807874 0.034315,-0.0965157l-0.0107244 -0.122256c-0.10152,0.0185906 -0.176591,0.0450433 -0.225205,0.0793583 -0.0243071,-0.011437 -0.0500472,-0.0378898 -0.0772126,-0.0793583 -0.0185906,-0.0328858 -0.0378937,-0.0650591 -0.0579094,-0.0965157l0.0150118 -0.0321732c0.0257362,0.00143307 0.053622,0.0114409 0.0836496,0.0300276 0.0300276,-0.00285827 0.0732795,-0.0150118 0.12976,-0.0364606 0.0564803,-0.0214488 0.0990197,-0.034315 0.127618,-0.0386063 0.0042874,-0.118681 0.00571654,-0.225205 0.0042874,-0.319579l0 -0.111531c-0.253087,0.388929 -0.51976,0.630579 -0.800016,0.724949l-0.122256 -0.0107244c0.330303,-0.233067 0.618421,-0.520472 0.864362,-0.862217 -0.0486142,3.93701e-006 -0.130118,0.0160866 -0.244508,0.0482598 -0.11439,0.0321732 -0.187315,0.0604134 -0.218772,0.0847205 -0.0157283,0.0114409 -0.0271693,0.0271693 -0.0343189,0.047185l-0.00643307 0c-0.0414685,0.00143307 -0.0793583,-0.0221614 -0.113677,-0.0707795 -0.0128661,-0.0200157 -0.034315,-0.0621969 -0.0643425,-0.126543 0.104382,0 0.232354,-0.0200157 0.383921,-0.0600551 0.12726,-0.0314567 0.253803,-0.0636299 0.379634,-0.0965157l-0.00857874 -0.231642c-0.0271693,-0.0271654 -0.0486181,-0.047185 -0.0643465,-0.0600551 -0.0200197,-0.0100079 -0.0400354,-0.0207323 -0.0600551,-0.0321732 -0.0243071,-0.0157244 -0.035748,-0.0321693 -0.034315,-0.0493307l0 -0.00857874c0.0886496,-0.0328858 0.13798,-0.0493268 0.147992,-0.0493307 0.0328858,3.93701e-006 0.0757835,0.0157323 0.128689,0.047185 0.0400354,0.0257402 0.0793583,0.0507638 0.117965,0.0750709 0.0042874,0.0157283 0.00643307,0.029315 0.00643307,0.040752 0,0.0400354 -0.0243071,0.0622008 -0.0729213,0.0664882 -0.0114409,0.0343189 -0.0171614,0.0736417 -0.0171575,0.117965 -3.93701e-006,0.0171614 0.000712598,0.0350354 0.00214173,0.053622 0.0371772,0 0.0940157,-0.0103661 0.170516,-0.0311024 0.0764961,-0.0207283 0.120465,-0.0310984 0.131906,-0.0310984 0.131547,0 0.240217,0.0371772 0.326012,0.111531 0.00285827,0.0100118 0.0042874,0.0193031 0.00429134,0.0278819 -3.93701e-006,0.0486181 -0.0479055,0.0729252 -0.143705,0.0729252 -0.0314606,0 -0.0793583,-0.00714961 -0.143705,-0.0214488 -0.0643425,-0.0142992 -0.113673,-0.0214488 -0.147992,-0.0214488 0,0 -0.0557638,0.00929528 -0.167295,0.0278819 0.0815039,0.134409 0.165866,0.242366 0.253091,0.32387 0.0686299,0.0643425 0.179449,0.144059 0.332445,0.239146 0.152996,0.0950866 0.259524,0.182665 0.319579,0.26274 -0.00143307,0.0142992 -0.00714961,0.0257362 -0.0171575,0.0343189 -0.0128701,0.0128661 -0.0550551,0.0257362 -0.126543,0.0386063 -0.0629173,0.0100079 -0.108673,0.0150118 -0.137272,0.0150118 -0.0314567,0 -0.0600551,-0.0035748 -0.0857913,-0.0107244 -0.0643465,-0.0200157 -0.165154,-0.134409 -0.302421,-0.343169 -0.034315,-0.0529055 -0.0915118,-0.135122 -0.171583,-0.246654 -0.0171614,-0.0257402 -0.0343189,-0.0521929 -0.0514764,-0.0793583 -0.022878,-0.035748 -0.0450433,-0.053622 -0.0664882,-0.053622 0.00285827,0.117252 0.0042874,0.188031 0.0042874,0.212339 0.0042874,0.0815039 0.011437,0.15228 0.0214488,0.212335 0.00857874,-0.00142913 0.0328858,-0.00643307 0.0729252,-0.0150118 0.0300236,-0.00572047 0.0550472,-0.00857874 0.0750669,-0.00857874 0.0314567,0 0.0668465,0.0135827 0.106169,0.040752 0.0393189,0.0271654 0.0589803,0.0557638 0.0589803,0.0857913 0,0.0271693 -0.0243071,0.0436102 -0.0729213,0.0493307 0.00142913,-0.00142913 -0.0328898,-0.00214567 -0.102953,-0.00214567l0 0zm-0.853638 0.911547c0.0114409,0.00572047 0.0257402,0.00858268 0.0428976,0.00857874 0.0257362,0.00143307 0.0400354,0.00214961 0.0428976,0.00214567 0.070063,0.0114409 0.115102,0.0207362 0.135122,0.0278819 0.0500433,0.0185906 0.0800709,0.0500472 0.0900827,0.094374l-0.0278819 0.117965c-0.00429134,0.0257402 -0.0214488,0.0657756 -0.0514764,0.12011l0.0300276 0.0171575 0.0386063 -0.0214488c0.0328858,-0.0042874 0.0607677,-0.00643307 0.0836496,-0.00643307 0.0943701,0 0.141555,0.0343189 0.141555,0.102953 -0.00714961,0.00142913 -0.135122,0.0278819 -0.383921,0.0793583 -0.152996,0.0328858 -0.274535,0.0772126 -0.364618,0.132976 -0.0285984,0 -0.0600551,-0.011437 -0.094374,-0.034315 -0.0271654,-0.0214488 -0.0536181,-0.0428976 -0.0793583,-0.0643465 0.0600551,-0.00857874 0.137268,-0.0285945 0.231642,-0.0600551 0.111531,-0.0371732 0.188028,-0.0600551 0.229496,-0.0686339 -0.0157283,-0.0900827 -0.0235945,-0.135122 -0.0235945,-0.135122 0,-0.0200197 0.00142913,-0.0507598 0.00429134,-0.0922283 0.00285827,-0.0414646 0.0042874,-0.0729213 0.0042874,-0.094374 0,-0.022874 -0.0107244,-0.0439646 -0.0321693,-0.0632717 -0.0214488,-0.0192992 -0.0321732,-0.0339567 -0.0321732,-0.0439685 0,-0.00571654 0.00500394,-0.0121496 0.0150118,-0.0193031l0 0zm1.26115 0.0321732c0.0457559,0 0.0807874,0.00858268 0.105098,0.0257362l0.0193031 0.0750709c-0.0328898,0.0185906 -0.0822205,0.0328898 -0.147992,0.0428976 -0.0714961,0.011437 -0.121543,0.0243071 -0.150138,0.0386063l0.0193031 0.0386063 -0.0386063 0.040752c-3.93701e-006,0.0157283 -0.00715354,0.0400354 -0.0214488,0.0729213 -0.0143031,0.0328898 -0.0214488,0.0543386 -0.0214488,0.0643465 0,0.0157283 0.00857874,0.0300276 0.0257362,0.0428937 0.0171575,-0.0328858 0.0550512,-0.0493268 0.113677,-0.0493307 0.0929409,3.93701e-006 0.165862,0.0214528 0.218772,0.0643465l0 0.0664882c-0.00572047,-0.00142913 -0.0107283,-0.00214173 -0.0150157,-0.00214567 -0.0128701,3.93701e-006 -0.0232362,0.00679528 -0.0310984,0.020378 -0.00786614,0.0135827 -0.015374,0.0260945 -0.0225197,0.0375354l-0.0257402 0.158717c0.0643425,0.00714961 0.127972,0.0135827 0.19089,0.0193031 0.0729213,0.011437 0.131547,0.034315 0.175874,0.0686339 0.011437,0.034315 0.0235906,0.0622008 0.0364646,0.0836457 -0.00429134,0.0128701 -0.0143031,0.0207362 -0.0300276,0.0235945l-0.0257402 0.0386063 -0.0300276 0.00214567c-0.0428976,0.00142913 -0.0958031,-0.00929528 -0.158717,-0.0321732 -0.094374,-0.0357441 -0.145846,-0.0550512 -0.154425,-0.0579094 -0.0285984,-0.00714961 -0.0786457,-0.0107244 -0.150138,-0.0107244 -0.108673,0 -0.226638,0.0171575 -0.353894,0.0514764 -0.150138,0.0386063 -0.253807,0.0886535 -0.311,0.150138l-0.0493307 0c-0.00714961,-0.0343189 -0.0307441,-0.0679213 -0.0707795,-0.100807l0.0300276 -0.0321732 0.0321732 0.0321732c0.00142913,-0.00142913 0.10724,-0.040752 0.317433,-0.117965l-0.00429134 -0.040752c0.00285827,-0.0128701 0.0271693,-0.047185 0.0729252,-0.102953 0.0386063,-0.047185 0.0579094,-0.0972283 0.0579094,-0.150138 -0.0743543,3.93701e-006 -0.134409,0.0228819 -0.180165,0.0686339l-0.047185 -0.100803 0.0321732 -0.040752 0.0772126 0.034315 0.137268 -0.034315c0.0371772,-0.0929409 0.0607677,-0.182311 0.0707795,-0.268102l-0.0278819 -0.0214488c-0.0285984,0.0028622 -0.0428976,0.00429134 -0.0428976,0.0042874 -0.0643465,3.93701e-006 -0.11439,-0.0321693 -0.150138,-0.0965157l0.0922283 0.0150157c0.0357441,-0.00714961 0.0900827,-0.0185866 0.163008,-0.0343189 0.0200157,-0.00571654 0.058622,-0.022874 0.115819,-0.0514764 0.0486142,-0.0257362 0.087937,-0.0378898 0.117965,-0.0364606l0.0386063 0zm-0.358185 0.817177c0.0543346,-0.00714961 0.133693,-0.0243071 0.238075,-0.0514764 -0.00857874,-0.0872205 -0.0128701,-0.130835 -0.0128661,-0.130835 -3.93701e-006,-0.011437 0.00178346,-0.0282402 0.00535827,-0.0504016 0.0035748,-0.0221654 0.0053622,-0.0389646 0.0053622,-0.0504055 0,-0.0243071 -0.00429134,-0.0443228 -0.0128661,-0.0600551 -0.0643465,3.93701e-006 -0.107244,0.0207362 -0.128689,0.0622008 -0.0171614,0.047185 -0.0328898,0.0936575 -0.047185,0.139413 -0.0100118,0.022878 -0.020378,0.0468307 -0.0311024,0.0718504 -0.0107244,0.0250236 -0.0160866,0.0482598 -0.0160866,0.0697087l0 0zm-0.641299 -0.154429l0.0386063 0.0428976 -0.0257362 0.0321732c-0.0886535,0.0214488 -0.167299,0.0543346 -0.235933,0.0986614 -0.0157283,-0.00572047 -0.0464685,-0.0114409 -0.0922244,-0.0171614 -0.0414685,-0.0042874 -0.0722087,-0.0121535 -0.0922283,-0.0235906 0.0371772,-0.00714961 0.0986614,-0.0328858 0.184453,-0.0772126 0.0772126,-0.0400354 0.137268,-0.0600551 0.180165,-0.0600551 0.0128701,0 0.0271693,0.00142913 0.0428976,0.0042874l0 0zm-0.0600551 0.278827c0.0314567,-0.00572047 0.0643425,0.00429134 0.0986614,0.0300276l0.0107244 0.0686339 -0.315287 0.113677 -0.171587 -0.0750709c0.0185866,-0.0128661 0.0650591,-0.0264528 0.139413,-0.040752 0.0614843,-0.0128661 0.105811,-0.0378898 0.13298,-0.0750669l0.105094 -0.0214488zm1.01235 0.17802c0.0357441,0 0.0836457,0.0164449 0.143701,0.0493307 0.0457559,0.0271693 0.0907953,0.0543346 0.135126,0.0815039l0.0193031 0.0450394 -0.00429134 0.0450433c-0.0443268,0.0214488 -0.0929449,0.0664882 -0.145846,0.135122 -0.0772165,0.0958031 -0.120827,0.148709 -0.130835,0.158717l-0.356039 0.0257402c-0.0114409,0.0400354 -0.0171614,0.0736378 -0.0171575,0.100807 -3.93701e-006,0.0157283 0.00214173,0.0314567 0.00643307,0.047185l-0.0150118 0c-0.0500472,0.0042874 -0.0879409,-0.0378937 -0.113677,-0.126547 -0.0142992,-0.0643425 -0.0285984,-0.129402 -0.0428976,-0.195177 -0.0128701,-0.0443268 -0.0285984,-0.107957 -0.047185,-0.19089l-0.0557638 -0.0450394 -0.00429134 -0.0364606c0.00572047,-0.00142913 0.011437,-0.00214567 0.0171614,-0.00214567 0.0142953,0 0.0321693,0.0042874 0.0536181,0.0128701 0.0214488,0.00857874 0.0378898,0.0128661 0.0493307,0.0128661 -0.0100079,0 0.0278819,-0.0100079 0.113677,-0.0300276 0.245937,-0.058622 0.377484,-0.087937 0.394646,-0.087937l0 0zm-0.677764 0.311c-0.0400354,0.0128701 -0.0911535,0.058626 -0.153354,0.137268 -0.0622008,0.0786417 -0.119752,0.125114 -0.172657,0.139413 -0.0214488,-0.00572047 -0.0321732,-0.00857874 -0.0321732,-0.00857874 -0.0786417,0 -0.137268,0.0135827 -0.175874,0.040752l0.0171575 0.126543 -0.0107244 0.0386063 -0.0321693 0c-0.0443268,-0.0428976 -0.0822205,-0.13298 -0.113677,-0.270248 -0.0271693,-0.12726 -0.0693504,-0.208047 -0.126543,-0.242362l0.0900827 0.00857874c0.0486142,-0.0100079 0.119394,-0.0257402 0.212335,-0.047185 0.0100118,-0.0028622 0.0707795,-0.0271693 0.182311,-0.0729252 0.0400354,-0.0171575 0.0707795,-0.0257362 0.0922283,-0.0257362 0.00714567,0 0.0364606,0.00929134 0.087937,0.0278819 0.0800709,0.0271654 0.125114,0.0764961 0.135122,0.147992l0 0zm0.248799 -0.109386c0.00714961,0.0657756 0.0128701,0.111531 0.0171575,0.137268 0.0128701,0.0514764 0.0307441,0.0922283 0.053622,0.122256 0.111528,-0.0271693 0.169441,-0.0421811 0.173728,-0.0450433 0.0414685,-0.0214488 0.0743543,-0.0707795 0.0986654,-0.147992 0.00571654,-0.0257362 0.0200157,-0.0607677 0.0428937,-0.105094 -0.0157283,-0.0142992 -0.035748,-0.0214488 -0.0600551,-0.0214488 -0.0300276,0 -0.0500472,-0.00214567 -0.0600551,-0.00643307 -0.100091,0.0200157 -0.188744,0.0421811 -0.265957,0.0664882l0 0zm-0.845059 0.147992c0.00714961,0.0772126 0.0271693,0.144417 0.0600551,0.201614l0.0965197 -0.0171614c0.0243071,-0.0328858 0.047185,-0.0757835 0.0686339,-0.128689 0.0257362,-0.0643425 0.0443228,-0.106524 0.0557638,-0.126543 -0.0142992,-0.00142913 -0.029315,-0.00214567 -0.0450394,-0.00214567 -0.082937,0 -0.161579,0.024311 -0.235933,0.0729252l0 0z"/>
      </g>
     </g>
    </g>
   </g>
   <polygon class="fil1" points="1.75284,-0.00879134 3.86434,-0.00879134 3.86434,2.00295 1.75284,2.00295 "/>
   <g>
   </g>
   <g style="clip-path:url(#id2)">
    <g>
     <g>
      <g id="layer1_2">
       <path id="flowRoot2160_3" class="fil0" d="M5.41519 -4.28026c0.0314567,0.00858268 0.0897244,0.0353898 0.174803,0.0804291 0.0850787,0.0450433 0.13548,0.0761457 0.151213,0.0933031 0.0157244,0.0171575 0.022874,0.0371772 0.0214449,0.0600512l0 0.0128701c-0.00714961,0.0028622 -0.0235945,0.0175197 -0.0493307,0.0439685 -0.0257362,0.0264567 -0.0479016,0.038252 -0.0664882,0.0353898l-0.0428976 0.0922283 0.0107244 0.040752 -0.034315 0.132976c0.00285827,0.0257402 0.0042874,0.0386102 0.0042874,0.0386063 0,3.93701e-006 -0.00643307,0.0314606 -0.0193031,0.094374l0.0150157 0.040752 -0.0107244 0.0450394c0.0100079,0.035748 0.0178701,0.0950906 0.0235945,0.17802 0.00285433,0.0643465 0.00642913,0.12726 0.0107205,0.188744l-0.0193031 0.0493307c0.0100079,0.022878 0.0150118,0.114394 0.0150157,0.274539 -3.93701e-006,0 -0.000716535,0.0443268 -0.00214567,0.132976l-0.0772126 0.171587 -0.0772126 0.00857874 -0.0386063 0.0278819c-0.0486181,-0.034315 -0.0765,-0.0815039 -0.0836496,-0.141555 -0.0457559,-0.0328898 -0.111531,-0.0493346 -0.197323,-0.0493307 -0.0872244,-3.93701e-006 -0.20376,0.0100079 -0.349606,0.0300236 -0.058626,0.00714961 -0.140843,0.0285984 -0.246654,0.0643465l-0.137268 0.047185c-0.0857953,-0.0457559 -0.137268,-0.0872205 -0.154429,-0.124398 -0.0128661,-0.0614843 -0.0257362,-0.122969 -0.0386063,-0.184457 0.0614843,-0.197323 0.0922283,-0.492591 0.0922283,-0.885807 0,-0.0285984 -0.00142913,-0.0711378 -0.00429134,-0.127618 -0.00285827,-0.0564803 -0.0042874,-0.0990157 -0.0042874,-0.127618 0,-0.0243031 -0.0157283,-0.0550472 -0.047185,-0.0922244 -0.0314606,-0.0371772 -0.0464724,-0.0679173 -0.0450433,-0.0922283l0 -0.00643307c0.0100079,-0.00142913 0.0200197,-0.00214567 0.0300276,-0.00214567 0.0328858,0 0.0922283,0.0164449 0.17802,0.0493307l0.911547 -0.195177 0.0557677 0.0107244 0.0514724 -0.0150157zm-0.96302 0.328157c-0.0114409,0.022878 -0.0171614,0.0564803 -0.0171614,0.100807l0 0.231638c0,3.93701e-006 0.00142913,0.0772165 0.00429134,0.231642l0.0857913 0.0107244c0.0343189,-0.0142992 0.0872244,-0.0300276 0.158717,-0.047185 0.190173,-0.047185 0.338165,-0.100807 0.443976,-0.160862l0.160862 0.0386063 0.0128701 -0.135122c0.00142913,-0.0100079 0.00107087,-0.0257362 -0.00107087,-0.047189 -0.00214961,-0.0214449 -0.00322047,-0.0364606 -0.00322047,-0.0450394 0,-0.152996 -0.00285827,-0.255949 -0.00857874,-0.308854 -0.0300276,-0.00571654 -0.0607717,-0.00857874 -0.0922244,-0.00857874 -0.047189,0 -0.10224,0.00714961 -0.165154,0.0214488 -0.0543346,0.0128701 -0.108669,0.0250236 -0.163004,0.0364606 -0.0700669,0.0114409 -0.139417,0.022878 -0.208047,0.0343189 -0.0843661,0.0142992 -0.153713,0.0300276 -0.208047,0.047185l0 0zm0.291693 0.649878c-0.0672047,0.0142992 -0.115106,0.0321732 -0.143701,0.053622l-0.147992 -0.0815039c-0.0171614,0.0328898 -0.0257402,0.0986614 -0.0257402,0.197323l-0.00214567 0.14585c0,0.0285945 -0.000712598,0.0500433 -0.00214173,0.0643425 -3.93701e-006,0 -0.0185906,0.0915118 -0.0557677,0.274535 0.451843,-0.121539 0.758551,-0.176587 0.920126,-0.16515l0.00858268 -0.544783 -0.0514764 -0.0193031c-0.058626,0.0114409 -0.116535,0.0235945 -0.173732,0.0364606 -0.0672047,0.0128701 -0.123685,0.0193031 -0.169441,0.0193031 -0.0457559,0 -0.0979449,0.00643701 -0.156571,0.0193031l0 0zm0.386067 2.42365c-0.0672047,0 -0.112961,0.0107244 -0.137268,0.0321732 0,0.0428976 0.0042874,0.108311 0.0128701,0.196252 0.00857874,0.087937 0.0128661,0.154067 0.0128661,0.198394 0,0.0972323 -0.0307402,0.159433 -0.0922244,0.186598 -0.0443268,-0.022878 -0.0772165,-0.0743543 -0.0986614,-0.154425 -0.0100118,-0.0571969 -0.0200197,-0.115106 -0.0300276,-0.173732 0.0243071,-0.0486142 0.0357441,-0.0807874 0.034315,-0.0965157l-0.0107244 -0.122256c-0.10152,0.0185906 -0.176591,0.0450433 -0.225205,0.0793583 -0.0243071,-0.011437 -0.0500472,-0.0378898 -0.0772126,-0.0793583 -0.0185906,-0.0328858 -0.0378937,-0.0650591 -0.0579094,-0.0965157l0.0150118 -0.0321732c0.0257362,0.00143307 0.053622,0.0114409 0.0836496,0.0300276 0.0300276,-0.00285827 0.0732795,-0.0150118 0.12976,-0.0364606 0.0564803,-0.0214488 0.0990197,-0.034315 0.127618,-0.0386063 0.0042874,-0.118681 0.00571654,-0.225205 0.0042874,-0.319579l0 -0.111531c-0.253087,0.388929 -0.51976,0.630579 -0.800016,0.724949l-0.122256 -0.0107244c0.330303,-0.233067 0.618421,-0.520472 0.864362,-0.862217 -0.0486142,3.93701e-006 -0.130118,0.0160866 -0.244508,0.0482598 -0.11439,0.0321732 -0.187315,0.0604134 -0.218772,0.0847205 -0.0157283,0.0114409 -0.0271693,0.0271693 -0.0343189,0.047185l-0.00643307 0c-0.0414685,0.00143307 -0.0793583,-0.0221614 -0.113677,-0.0707795 -0.0128661,-0.0200157 -0.034315,-0.0621969 -0.0643425,-0.126543 0.104382,0 0.232354,-0.0200157 0.383921,-0.0600551 0.12726,-0.0314567 0.253803,-0.0636299 0.379634,-0.0965157l-0.00857874 -0.231642c-0.0271693,-0.0271654 -0.0486181,-0.047185 -0.0643465,-0.0600551 -0.0200197,-0.0100079 -0.0400354,-0.0207323 -0.0600551,-0.0321732 -0.0243071,-0.0157244 -0.035748,-0.0321693 -0.034315,-0.0493307l0 -0.00857874c0.0886496,-0.0328858 0.13798,-0.0493268 0.147992,-0.0493307 0.0328858,3.93701e-006 0.0757835,0.0157323 0.128689,0.047185 0.0400354,0.0257402 0.0793583,0.0507638 0.117965,0.0750709 0.0042874,0.0157283 0.00643307,0.029315 0.00643307,0.040752 0,0.0400354 -0.0243071,0.0622008 -0.0729213,0.0664882 -0.0114409,0.0343189 -0.0171614,0.0736417 -0.0171575,0.117965 -3.93701e-006,0.0171614 0.000712598,0.0350354 0.00214173,0.053622 0.0371772,0 0.0940157,-0.0103661 0.170516,-0.0311024 0.0764961,-0.0207283 0.120465,-0.0310984 0.131906,-0.0310984 0.131547,0 0.240217,0.0371772 0.326012,0.111531 0.00285827,0.0100118 0.0042874,0.0193031 0.00429134,0.0278819 -3.93701e-006,0.0486181 -0.0479055,0.0729252 -0.143705,0.0729252 -0.0314606,0 -0.0793583,-0.00714961 -0.143705,-0.0214488 -0.0643425,-0.0142992 -0.113673,-0.0214488 -0.147992,-0.0214488 0,0 -0.0557638,0.00929528 -0.167295,0.0278819 0.0815039,0.134409 0.165866,0.242366 0.253091,0.32387 0.0686299,0.0643425 0.179449,0.144059 0.332445,0.239146 0.152996,0.0950866 0.259524,0.182665 0.319579,0.26274 -0.00143307,0.0142992 -0.00714961,0.0257362 -0.0171575,0.0343189 -0.0128701,0.0128661 -0.0550551,0.0257362 -0.126543,0.0386063 -0.0629173,0.0100079 -0.108673,0.0150118 -0.137272,0.0150118 -0.0314567,0 -0.0600551,-0.0035748 -0.0857913,-0.0107244 -0.0643465,-0.0200157 -0.165154,-0.134409 -0.302421,-0.343169 -0.034315,-0.0529055 -0.0915118,-0.135122 -0.171583,-0.246654 -0.0171614,-0.0257402 -0.0343189,-0.0521929 -0.0514764,-0.0793583 -0.022878,-0.035748 -0.0450433,-0.053622 -0.0664882,-0.053622 0.00285827,0.117252 0.0042874,0.188031 0.0042874,0.212339 0.0042874,0.0815039 0.011437,0.15228 0.0214488,0.212335 0.00857874,-0.00142913 0.0328858,-0.00643307 0.0729252,-0.0150118 0.0300236,-0.00572047 0.0550472,-0.00857874 0.0750669,-0.00857874 0.0314567,0 0.0668465,0.0135827 0.106169,0.040752 0.0393189,0.0271654 0.0589803,0.0557638 0.0589803,0.0857913 0,0.0271693 -0.0243071,0.0436102 -0.0729213,0.0493307 0.00142913,-0.00142913 -0.0328898,-0.00214567 -0.102953,-0.00214567l0 0zm-0.853638 0.911547c0.0114409,0.00572047 0.0257402,0.00858268 0.0428976,0.00857874 0.0257362,0.00143307 0.0400354,0.00214961 0.0428976,0.00214567 0.070063,0.0114409 0.115102,0.0207362 0.135122,0.0278819 0.0500433,0.0185906 0.0800709,0.0500472 0.0900827,0.094374l-0.0278819 0.117965c-0.00429134,0.0257402 -0.0214488,0.0657756 -0.0514764,0.12011l0.0300276 0.0171575 0.0386063 -0.0214488c0.0328858,-0.0042874 0.0607677,-0.00643307 0.0836496,-0.00643307 0.0943701,0 0.141555,0.0343189 0.141555,0.102953 -0.00714961,0.00142913 -0.135122,0.0278819 -0.383921,0.0793583 -0.152996,0.0328858 -0.274535,0.0772126 -0.364618,0.132976 -0.0285984,0 -0.0600551,-0.011437 -0.094374,-0.034315 -0.0271654,-0.0214488 -0.0536181,-0.0428976 -0.0793583,-0.0643465 0.0600551,-0.00857874 0.137268,-0.0285945 0.231642,-0.0600551 0.111531,-0.0371732 0.188028,-0.0600551 0.229496,-0.0686339 -0.0157283,-0.0900827 -0.0235945,-0.135122 -0.0235945,-0.135122 0,-0.0200197 0.00142913,-0.0507598 0.00429134,-0.0922283 0.00285827,-0.0414646 0.0042874,-0.0729213 0.0042874,-0.094374 0,-0.022874 -0.0107244,-0.0439646 -0.0321693,-0.0632717 -0.0214488,-0.0192992 -0.0321732,-0.0339567 -0.0321732,-0.0439685 0,-0.00571654 0.00500394,-0.0121496 0.0150118,-0.0193031l0 0zm1.26115 0.0321732c0.0457559,0 0.0807874,0.00858268 0.105098,0.0257362l0.0193031 0.0750709c-0.0328898,0.0185906 -0.0822205,0.0328898 -0.147992,0.0428976 -0.0714961,0.011437 -0.121543,0.0243071 -0.150138,0.0386063l0.0193031 0.0386063 -0.0386063 0.040752c-3.93701e-006,0.0157283 -0.00715354,0.0400354 -0.0214488,0.0729213 -0.0143031,0.0328898 -0.0214488,0.0543386 -0.0214488,0.0643465 0,0.0157283 0.00857874,0.0300276 0.0257362,0.0428937 0.0171575,-0.0328858 0.0550512,-0.0493268 0.113677,-0.0493307 0.0929409,3.93701e-006 0.165862,0.0214528 0.218772,0.0643465l0 0.0664882c-0.00572047,-0.00142913 -0.0107283,-0.00214173 -0.0150157,-0.00214567 -0.0128701,3.93701e-006 -0.0232362,0.00679528 -0.0310984,0.020378 -0.00786614,0.0135827 -0.015374,0.0260945 -0.0225197,0.0375354l-0.0257402 0.158717c0.0643425,0.00714961 0.127972,0.0135827 0.19089,0.0193031 0.0729213,0.011437 0.131547,0.034315 0.175874,0.0686339 0.011437,0.034315 0.0235906,0.0622008 0.0364646,0.0836457 -0.00429134,0.0128701 -0.0143031,0.0207362 -0.0300276,0.0235945l-0.0257402 0.0386063 -0.0300276 0.00214567c-0.0428976,0.00142913 -0.0958031,-0.00929528 -0.158717,-0.0321732 -0.094374,-0.0357441 -0.145846,-0.0550512 -0.154425,-0.0579094 -0.0285984,-0.00714961 -0.0786457,-0.0107244 -0.150138,-0.0107244 -0.108673,0 -0.226638,0.0171575 -0.353894,0.0514764 -0.150138,0.0386063 -0.253807,0.0886535 -0.311,0.150138l-0.0493307 0c-0.00714961,-0.0343189 -0.0307441,-0.0679213 -0.0707795,-0.100807l0.0300276 -0.0321732 0.0321732 0.0321732c0.00142913,-0.00142913 0.10724,-0.040752 0.317433,-0.117965l-0.00429134 -0.040752c0.00285827,-0.0128701 0.0271693,-0.047185 0.0729252,-0.102953 0.0386063,-0.047185 0.0579094,-0.0972283 0.0579094,-0.150138 -0.0743543,3.93701e-006 -0.134409,0.0228819 -0.180165,0.0686339l-0.047185 -0.100803 0.0321732 -0.040752 0.0772126 0.034315 0.137268 -0.034315c0.0371772,-0.0929409 0.0607677,-0.182311 0.0707795,-0.268102l-0.0278819 -0.0214488c-0.0285984,0.0028622 -0.0428976,0.00429134 -0.0428976,0.0042874 -0.0643465,3.93701e-006 -0.11439,-0.0321693 -0.150138,-0.0965157l0.0922283 0.0150157c0.0357441,-0.00714961 0.0900827,-0.0185866 0.163008,-0.0343189 0.0200157,-0.00571654 0.058622,-0.022874 0.115819,-0.0514764 0.0486142,-0.0257362 0.087937,-0.0378898 0.117965,-0.0364606l0.0386063 0zm-0.358185 0.817177c0.0543346,-0.00714961 0.133693,-0.0243071 0.238075,-0.0514764 -0.00857874,-0.0872205 -0.0128701,-0.130835 -0.0128661,-0.130835 -3.93701e-006,-0.011437 0.00178346,-0.0282402 0.00535827,-0.0504016 0.0035748,-0.0221654 0.0053622,-0.0389646 0.0053622,-0.0504055 0,-0.0243071 -0.00429134,-0.0443228 -0.0128661,-0.0600551 -0.0643465,3.93701e-006 -0.107244,0.0207362 -0.128689,0.0622008 -0.0171614,0.047185 -0.0328898,0.0936575 -0.047185,0.139413 -0.0100118,0.022878 -0.020378,0.0468307 -0.0311024,0.0718504 -0.0107244,0.0250236 -0.0160866,0.0482598 -0.0160866,0.0697087l0 0zm-0.641299 -0.154429l0.0386063 0.0428976 -0.0257362 0.0321732c-0.0886535,0.0214488 -0.167299,0.0543346 -0.235933,0.0986614 -0.0157283,-0.00572047 -0.0464685,-0.0114409 -0.0922244,-0.0171614 -0.0414685,-0.0042874 -0.0722087,-0.0121535 -0.0922283,-0.0235906 0.0371772,-0.00714961 0.0986614,-0.0328858 0.184453,-0.0772126 0.0772126,-0.0400354 0.137268,-0.0600551 0.180165,-0.0600551 0.0128701,0 0.0271693,0.00142913 0.0428976,0.0042874l0 0zm-0.0600551 0.278827c0.0314567,-0.00572047 0.0643425,0.00429134 0.0986614,0.0300276l0.0107244 0.0686339 -0.315287 0.113677 -0.171587 -0.0750709c0.0185866,-0.0128661 0.0650591,-0.0264528 0.139413,-0.040752 0.0614843,-0.0128661 0.105811,-0.0378898 0.13298,-0.0750669l0.105094 -0.0214488zm1.01235 0.17802c0.0357441,0 0.0836457,0.0164449 0.143701,0.0493307 0.0457559,0.0271693 0.0907953,0.0543346 0.135126,0.0815039l0.0193031 0.0450394 -0.00429134 0.0450433c-0.0443268,0.0214488 -0.0929449,0.0664882 -0.145846,0.135122 -0.0772165,0.0958031 -0.120827,0.148709 -0.130835,0.158717l-0.356039 0.0257402c-0.0114409,0.0400354 -0.0171614,0.0736378 -0.0171575,0.100807 -3.93701e-006,0.0157283 0.00214173,0.0314567 0.00643307,0.047185l-0.0150118 0c-0.0500472,0.0042874 -0.0879409,-0.0378937 -0.113677,-0.126547 -0.0142992,-0.0643425 -0.0285984,-0.129402 -0.0428976,-0.195177 -0.0128701,-0.0443268 -0.0285984,-0.107957 -0.047185,-0.19089l-0.0557638 -0.0450394 -0.00429134 -0.0364606c0.00572047,-0.00142913 0.011437,-0.00214567 0.0171614,-0.00214567 0.0142953,0 0.0321693,0.0042874 0.0536181,0.0128701 0.0214488,0.00857874 0.0378898,0.0128661 0.0493307,0.0128661 -0.0100079,0 0.0278819,-0.0100079 0.113677,-0.0300276 0.245937,-0.058622 0.377484,-0.087937 0.394646,-0.087937l0 0zm-0.677764 0.311c-0.0400354,0.0128701 -0.0911535,0.058626 -0.153354,0.137268 -0.0622008,0.0786417 -0.119752,0.125114 -0.172657,0.139413 -0.0214488,-0.00572047 -0.0321732,-0.00857874 -0.0321732,-0.00857874 -0.0786417,0 -0.137268,0.0135827 -0.175874,0.040752l0.0171575 0.126543 -0.0107244 0.0386063 -0.0321693 0c-0.0443268,-0.0428976 -0.0822205,-0.13298 -0.113677,-0.270248 -0.0271693,-0.12726 -0.0693504,-0.208047 -0.126543,-0.242362l0.0900827 0.00857874c0.0486142,-0.0100079 0.119394,-0.0257402 0.212335,-0.047185 0.0100118,-0.0028622 0.0707795,-0.0271693 0.182311,-0.0729252 0.0400354,-0.0171575 0.0707795,-0.0257362 0.0922283,-0.0257362 0.00714567,0 0.0364606,0.00929134 0.087937,0.0278819 0.0800709,0.0271654 0.125114,0.0764961 0.135122,0.147992l0 0zm0.248799 -0.109386c0.00714961,0.0657756 0.0128701,0.111531 0.0171575,0.137268 0.0128701,0.0514764 0.0307441,0.0922283 0.053622,0.122256 0.111528,-0.0271693 0.169441,-0.0421811 0.173728,-0.0450433 0.0414685,-0.0214488 0.0743543,-0.0707795 0.0986654,-0.147992 0.00571654,-0.0257362 0.0200157,-0.0607677 0.0428937,-0.105094 -0.0157283,-0.0142992 -0.035748,-0.0214488 -0.0600551,-0.0214488 -0.0300276,0 -0.0500472,-0.00214567 -0.0600551,-0.00643307 -0.100091,0.0200157 -0.188744,0.0421811 -0.265957,0.0664882l0 0zm-0.845059 0.147992c0.00714961,0.0772126 0.0271693,0.144417 0.0600551,0.201614l0.0965197 -0.0171614c0.0243071,-0.0328858 0.047185,-0.0757835 0.0686339,-0.128689 0.0257362,-0.0643425 0.0443228,-0.106524 0.0557638,-0.126543 -0.0142992,-0.00142913 -0.029315,-0.00214567 -0.0450394,-0.00214567 -0.082937,0 -0.161579,0.024311 -0.235933,0.0729252l0 0z"/>
      </g>
     </g>
    </g>
   </g>
   <polygon class="fil1" points="3.86076,-0.00879134 5.97226,-0.00879134 5.97226,2.00295 3.86076,2.00295 "/>
  </g>
 </g>
</svg>
